# xmcd
# 
# Track frame offsets:
#     150
#     12596
#     28267
#     44227
#     63236
#     80758
#     94573
#     113322
#     128098
#     146209
#     161873
#     192707
#     239475
# 
# Disc length: 3203
# 
# Revision: 3
# Processed by: cddbd v1.5.2PL0 Copyright (c) Steve Scherf et al.
# Submitted via: fre:ac v1.0.31
# 
DISCID=bf0c810d
DTITLE=VanZant - Get Right With The Man
DYEAR=2005
DGENRE=Rock/Pop
TTITLE0=Takin' Up Space
TTITLE1=Nobody Gonna Tell me What To Do
TTITLE2=Sweet Mama
TTITLE3=Help Somebody
TTITLE4=Things I Miss The Most
TTITLE5=I Know My History
TTITLE6=I Can't Help Myself
TTITLE7=I'm Doin' Alright
TTITLE8=Lovin' You
TTITLE9=Plain Jane
TTITLE10=Been There Done That
TTITLE11=Document
TTITLE12=Document
EXTD=YEAR: 2005
EXTT0=
EXTT1=
EXTT2=
EXTT3=
EXTT4=
EXTT5=
EXTT6=
EXTT7=
EXTT8=
EXTT9=
EXTT10=
EXTT11=
EXTT12=
PLAYORDER=
